<!DOCTYPE svg PUBLIC "-//W3C//DTD SVG 1.1//EN" "http://www.w3.org/Graphics/SVG/1.1/DTD/svg11.dtd">

<!-- Uploaded to: SVG Repo, www.svgrepo.com, Transformed by: SVG Repo Mixer Tools -->
<svg width="64px" height="64px" viewBox="0 0 960 960" fill="none" xmlns="http://www.w3.org/2000/svg">

<g id="SVGRepo_bgCarrier" stroke-width="0"/>

<g id="SVGRepo_tracerCarrier" stroke-linecap="round" stroke-linejoin="round"/>

<g id="SVGRepo_iconCarrier"> <path d="M530.405 500.586C485.98 523.489 473.175 573.351 479.05 618.82C482.947 639.823 495.598 658.785 504.81 677.891C512.487 695.706 511.953 713.055 499.166 728.737C464.573 776.908 384.732 744.32 397.904 681.572C384.515 682.073 375.092 688.74 368.163 698.562C329.782 746.332 357.699 810.454 405.567 839.575C413.277 844.836 424.658 851.661 419.716 862.578C416.985 868.803 411.695 871.018 404.956 870.475C302.052 862.186 225.957 798.881 197.611 699.729C174.372 637.85 198.524 502.352 267.344 480.685C280.821 477.999 291.771 487.71 290.035 501.328C288.603 512.556 284.768 523.592 281.054 534.388C267.644 566.949 300.493 616.604 335.433 594.108C344.375 588.621 349.161 580.766 349.827 570.353C353.475 508.29 289.435 484.64 301.847 415.786C299.383 384.935 358.144 292.504 390.477 314.361C396.028 319.052 397.841 325.365 395.799 332.08C390.315 350.245 378.59 366.81 381.052 386.552C382.677 414.517 420.441 435.513 444.808 421.325C467.988 407.827 488.717 380.445 468.361 345.751C461.094 333.364 454.46 320.607 447.293 308.16C366.163 177.455 561.274 44.0055 566.822 113.011C560.664 145.016 534.329 169.982 532.303 203.566C530.219 215.866 533.247 227.3 539.746 238.021C618.558 349.995 706.545 333.627 644.486 502.23C640.179 515.947 645.215 530.41 662.186 524.816C702.527 513.299 693.207 464.945 695.477 432.634C695.926 425.307 698.564 419.32 706.173 416.961C713.549 414.674 719.541 417.797 722.91 423.868C731.005 438.455 739.228 453.092 745.742 468.414C782.492 554.847 783.915 641.873 748.146 728.98C735.626 759.468 716.435 785.618 690.915 806.409C673.965 820.218 655.897 832.798 637.489 844.62C625.772 852.145 615.684 851.104 610.22 844.23C589.852 823.986 691.375 726.281 618.219 667.388C557.07 625.88 503.776 583.352 530.405 500.586Z" fill="#dbc748"/> <path d="M752.837 345.964C717.484 341.923 730.499 306.071 748.981 288.603C789.029 247.117 828.321 204.701 870.398 165.257C881.91 154.161 901.816 149.771 911.675 165.538C917.235 173.681 917.123 185.646 910.489 194.222C866.226 242.087 819.547 287.874 774.501 335.051C768.5 341.237 761.986 346.147 752.837 345.964Z" fill="#dbc748"/> <path d="M169.252 89.7578C177.631 89.9658 186.03 96.3628 193.481 104.406C231.966 148.222 275.865 188.072 309.931 235.451C321.48 254.973 298.533 277.04 279.575 264.351C235.538 227.461 198.018 182.624 157.999 141.37C139.402 123.864 134.074 91.0438 169.252 89.7578Z" fill="#dbc748"/> <path d="M142.623 522.604C115.769 516.09 88.8085 509.987 61.9185 503.653C34.6865 498.633 32.2045 458.606 61.5185 455.219C66.3685 454.825 71.5235 455.207 76.2255 456.435C103.392 464.466 131.877 469.442 158.095 480.126C180.677 492.941 167.447 524.453 142.947 521.176C142.838 521.652 142.731 522.128 142.623 522.604Z" fill="#dbc748"/> <path d="M893.483 431.125C920.761 431.041 929.763 466.751 905.006 478.527C883.034 486.531 859.369 489.656 836.678 495.329C823.436 498.18 811.679 491.93 808.098 480.745C801.937 463.899 818.645 450.534 834.7 447.32C854.23 441.696 873.501 434.981 893.483 431.125Z" fill="#dbc748"/> <path d="M671.438 140.391C725.618 148.581 674.1 208.857 661.803 234.774C655.762 244.931 644.188 247.394 635.064 243.126C620.171 236.98 621.2 217.327 627.906 204.08C638.844 184.119 644.432 140.758 671.438 140.391Z" fill="#dbc748"/> <path d="M217.187 385.323C195.362 380.462 175.608 367.381 155.711 357.424C143.359 350.264 140.393 335.175 146.689 323.863C152.824 312.84 166.919 307.221 179.249 313.702C197.378 323.232 215.093 333.921 231.646 345.957C251.028 361.961 238.175 381.934 217.974 386.619C217.711 386.188 217.449 385.756 217.187 385.323Z" fill="#dbc748"/> </g>

</svg>