<!DOCTYPE svg PUBLIC "-//W3C//DTD SVG 1.1//EN" "http://www.w3.org/Graphics/SVG/1.1/DTD/svg11.dtd">
<!-- Uploaded to: SVG Repo, www.svgrepo.com, Transformed by: SVG Repo Mixer Tools -->
<svg version="1.1" id="_x32_" xmlns="http://www.w3.org/2000/svg" xmlns:xlink="http://www.w3.org/1999/xlink" width="64px" height="64px" viewBox="0 0 512 512" xml:space="preserve" fill="#000000" stroke="#000000">
<g id="SVGRepo_bgCarrier" stroke-width="0"/>
<g id="SVGRepo_tracerCarrier" stroke-linecap="round" stroke-linejoin="round"/>
<g id="SVGRepo_iconCarrier"> <style type="text/css">  .st0{fill:#ff0000;}  </style> <g> <path class="st0" d="M469.219,67.484c-27.594-27.594-64.281-42.781-103.297-42.781s-75.703,15.188-103.297,42.781 c-2.281,2.297-4.5,4.656-6.625,7.078c-2.125-2.422-4.344-4.781-6.625-7.078c-27.594-27.594-64.281-42.781-103.297-42.781 S70.375,39.891,42.781,67.484S0,131.766,0,170.781c0,30.641,9.375,59.844,26.766,84.344c4.422,6.25,9.391,12.188,14.859,17.781 c0.375,0.391,0.766,0.781,1.156,1.172l189.875,189.844L256,487.297l213.219-213.219c0.375-0.391,0.781-0.781,1.141-1.172 c5.484-5.594,10.453-11.531,14.859-17.781c17.406-24.5,26.781-53.703,26.781-84.344C512,131.766,496.781,95.078,469.219,67.484z M256,440.594L88.313,272.906h65.906l26.531-101.703l55,187.094l40.313-121.578l35.266,70.141l32.875-33.953h79.484L256,440.594z M445.859,250.719l-4.391,4.406H336.656l-20.688,21.359l-43.281-86.109l-35.906,108.328L179.75,104.688l-39.281,150.438H70.531 l-4.391-4.406c-44.156-44.156-44.156-115.734,0-159.875c22.078-22.078,51.016-33.109,79.938-33.109 c28.938,0,57.859,11.031,79.938,33.109c15.297,15.297,25.281,33.875,29.984,53.484c4.688-19.609,14.688-38.188,29.969-53.484 c22.078-22.078,51.016-33.109,79.953-33.109c28.922,0,57.859,11.031,79.938,33.109C490,134.984,490,206.563,445.859,250.719z"/> </g> </g>
</svg>