<svg xmlns="http://www.w3.org/2000/svg" xmlns:xlink="http://www.w3.org/1999/xlink" viewBox="0,0,256,256" width="48px" height="48px" fill-rule="nonzero"><g fill="#fcc419" fill-rule="nonzero" stroke="none" stroke-width="1" stroke-linecap="butt" stroke-linejoin="miter" stroke-miterlimit="10" stroke-dasharray="" stroke-dashoffset="0" font-family="none" font-weight="none" font-size="none" text-anchor="none" style="mix-blend-mode: normal"><g transform="scale(4,4)"><path d="M32,9c-8.822,0 -16,7.178 -16,16c0,6.049 2.98958,9.35281 5.39258,12.00781c2.015,2.227 3.60742,3.98619 3.60742,6.99219c0,1.104 0.896,2 2,2h10c1.104,0 2,-0.896 2,-2c0,-3.006 1.59242,-4.76519 3.60742,-6.99219c2.403,-2.655 5.39258,-5.95881 5.39258,-12.00781c0,-8.822 -7.178,-16 -16,-16zM12,10c-1.104,0 -2,0.895 -2,2c0,1.105 0.896,2 2,2c1.104,0 2,-0.895 2,-2c0,-1.105 -0.896,-2 -2,-2zM52,10c-1.104,0 -2,0.895 -2,2c0,1.105 0.896,2 2,2c1.104,0 2,-0.895 2,-2c0,-1.105 -0.896,-2 -2,-2zM8,24c-1.104,0 -2,0.895 -2,2c0,1.105 0.896,2 2,2c1.104,0 2,-0.895 2,-2c0,-1.105 -0.896,-2 -2,-2zM56,24c-1.104,0 -2,0.895 -2,2c0,1.105 0.896,2 2,2c1.104,0 2,-0.895 2,-2c0,-1.105 -0.896,-2 -2,-2zM12,38c-1.104,0 -2,0.895 -2,2c0,1.105 0.896,2 2,2c1.104,0 2,-0.895 2,-2c0,-1.105 -0.896,-2 -2,-2zM52,38c-1.104,0 -2,0.895 -2,2c0,1.105 0.896,2 2,2c1.104,0 2,-0.895 2,-2c0,-1.105 -0.896,-2 -2,-2zM28,48c-1.104,0 -2,0.895 -2,2c0,1.105 0.896,2 2,2h0.55469c0.69293,1.1906 1.96858,2 3.44531,2c1.47673,0 2.75238,-0.8094 3.44531,-2h0.55469c1.104,0 2,-0.895 2,-2c0,-1.105 -0.896,-2 -2,-2z"></path></g></g></svg>