<svg xmlns="http://www.w3.org/2000/svg" xmlns:xlink="http://www.w3.org/1999/xlink" viewBox="0,0,256,256" width="48px" height="48px" fill-rule="nonzero"><g fill="#94d82d" fill-rule="nonzero" stroke="none" stroke-width="1" stroke-linecap="butt" stroke-linejoin="miter" stroke-miterlimit="10" stroke-dasharray="" stroke-dashoffset="0" font-family="none" font-weight="none" font-size="none" text-anchor="none" style="mix-blend-mode: normal"><g transform="scale(4,4)"><path d="M32,10c12.15,0 22,9.85 22,22c0,12.15 -9.85,22 -22,22c-12.15,0 -22,-9.85 -22,-22c0,-12.15 9.85,-22 22,-22zM42.679,25.486c0.601,-0.927 0.336,-2.166 -0.591,-2.766c-0.93,-0.6 -2.167,-0.336 -2.767,0.591l-9.709,14.986l-5.11,-5.809c-0.729,-0.829 -1.994,-0.911 -2.823,-0.18c-0.829,0.729 -0.91,1.993 -0.181,2.823l6.855,7.791c0.382,0.433 0.93,0.679 1.502,0.679c0.049,0 0.098,-0.002 0.146,-0.005c0.625,-0.046 1.191,-0.382 1.532,-0.907z"></path></g></g></svg>