<svg xmlns="http://www.w3.org/2000/svg" xmlns:xlink="http://www.w3.org/1999/xlink" viewBox="0,0,256,256" width="48px" height="48px" fill-rule="nonzero"><g fill="#fa5252" fill-rule="nonzero" stroke="none" stroke-width="1" stroke-linecap="butt" stroke-linejoin="miter" stroke-miterlimit="10" stroke-dasharray="" stroke-dashoffset="0" font-family="none" font-weight="none" font-size="none" text-anchor="none" style="mix-blend-mode: normal"><g transform="scale(4,4)"><path d="M32,10c12.15,0 22,9.85 22,22c0,12.15 -9.85,22 -22,22c-12.15,0 -22,-9.85 -22,-22c0,-12.15 9.85,-22 22,-22zM36.95,39.778c0.781,0.781 2.047,0.781 2.828,0c0.781,-0.781 0.781,-2.047 0,-2.828c-0.175,-0.175 -2.767,-2.767 -4.95,-4.95c2.183,-2.183 4.774,-4.774 4.95,-4.95c0.781,-0.781 0.781,-2.047 0,-2.828c-0.781,-0.781 -2.047,-0.781 -2.828,0c-0.175,0.175 -2.767,2.767 -4.95,4.95c-2.183,-2.183 -4.775,-4.775 -4.95,-4.95c-0.781,-0.781 -2.047,-0.781 -2.828,0c-0.781,0.781 -0.781,2.047 0,2.828c0.175,0.175 2.767,2.767 4.95,4.95c-2.183,2.183 -4.774,4.774 -4.95,4.95c-0.781,0.781 -0.781,2.047 0,2.828c0.781,0.781 2.047,0.781 2.828,0c0.175,-0.175 2.767,-2.767 4.95,-4.95c2.183,2.183 4.775,4.775 4.95,4.95z"></path></g></g></svg>