<!DOCTYPE svg PUBLIC "-//W3C//DTD SVG 1.1//EN" "http://www.w3.org/Graphics/SVG/1.1/DTD/svg11.dtd">
<!-- Uploaded to: SVG Repo, www.svgrepo.com, Transformed by: SVG Repo Mixer Tools -->
<svg width="64px" height="64px" viewBox="0 0 24 24" fill="none" xmlns="http://www.w3.org/2000/svg">
<g id="SVGRepo_bgCarrier" stroke-width="0"/>
<g id="SVGRepo_tracerCarrier" stroke-linecap="round" stroke-linejoin="round"/>
<g id="SVGRepo_iconCarrier"> <path opacity="0.15" fill-rule="evenodd" clip-rule="evenodd" d="M12 5C5.63636 5 2 12 2 12C2 12 5.63636 19 12 19C18.3636 19 22 12 22 12C22 12 18.3636 5 12 5ZM15 12C15 13.6569 13.6569 15 12 15C10.3431 15 9 13.6569 9 12C9 10.3431 10.3431 9 12 9C13.6569 9 15 10.3431 15 12Z" fill="#5c93c7"/> <path d="M12 5C5.63636 5 2 12 2 12C2 12 5.63636 19 12 19C18.3636 19 22 12 22 12C22 12 18.3636 5 12 5Z" stroke="#5c93c7" stroke-width="1.5" stroke-linecap="round" stroke-linejoin="round"/> <path d="M12 15C13.6569 15 15 13.6569 15 12C15 10.3431 13.6569 9 12 9C10.3431 9 9 10.3431 9 12C9 13.6569 10.3431 15 12 15Z" stroke="#5c93c7" stroke-width="1.5" stroke-linecap="round" stroke-linejoin="round"/> </g>
</svg>